<?xml version="1.0" encoding="UTF-8"?>
<svg width="100" height="100" viewBox="0 0 100 100" fill="none" xmlns="http://www.w3.org/2000/svg">
    <path d="M28.3397 42.3913C28.3397 43.4782 28.4408 44.3913 28.5926 45.0434C28.7947 45.6956 29.0474 46.4492 29.4008 47.3039C29.5526 47.6086 29.6033 47.9134 29.6033 48.1669C29.6033 48.5223 29.4008 48.8778 28.9466 49.2332L27.0763 50.4717C26.8235 50.6239 26.5707 50.7252 26.3687 50.7252C26.0153 50.7252 25.6619 50.5223 25.3085 50.0656C24.9551 49.6089 24.6524 49.1015 24.3497 48.5454C24.0976 47.9892 23.8448 47.3826 23.5421 46.7252C21.2647 49.4567 18.4803 50.8217 15.1889 50.8217C12.9115 50.8217 11.0919 50.1695 9.77789 48.8652C8.46384 47.5608 7.80682 45.8173 7.80682 43.6347C7.80682 41.2999 8.66844 39.4043 10.3917 37.9886C12.1149 36.5728 14.4431 35.8649 17.3789 35.8649C18.5309 35.8649 19.7336 35.9662 21.0476 36.1184C22.3617 36.2706 23.7264 36.5247 25.1925 36.8295V34.2173C25.1925 31.9839 24.7383 30.3417 23.8767 29.3561C22.965 28.3704 21.4482 27.8776 19.2722 27.8776C18.3098 27.8776 17.2972 28.0299 16.2846 28.2834C15.272 28.5369 14.3096 28.8417 13.3979 29.1971C12.9437 29.3999 12.5903 29.5013 12.3375 29.5521C12.0847 29.6028 11.8826 29.6534 11.7308 29.6534C11.2259 29.6534 10.9731 29.2473 10.9731 28.4347V26.8937C10.9731 26.2921 11.0742 25.8354 11.2766 25.5819C11.4787 25.3284 11.8321 25.0749 12.3375 24.8213C13.2999 24.3139 14.4684 23.8571 15.8838 23.4508C17.2972 23.0445 18.8139 22.8417 20.4364 22.8417C24.1346 22.8417 26.8176 23.7471 28.4401 25.5819C30.0119 27.4167 30.8228 30.1389 30.8228 33.7606V42.3913H28.3397ZM16.0825 46.0936C17.0444 46.0936 18.057 45.8908 19.1711 45.4845C20.2851 45.0782 21.2471 44.3754 22.0073 43.4193C22.4615 42.8632 22.7649 42.2558 22.9163 41.5528C23.0681 40.8499 23.1692 39.9952 23.1692 38.9589V37.4419C22.0551 37.2391 20.8903 37.0869 19.7255 36.9854C18.5607 36.8839 17.4467 36.8332 16.3833 36.8332C14.3096 36.8332 12.7885 37.2391 11.7759 38.0517C10.7633 38.8643 10.2584 40.0521 10.2584 41.6436C10.2584 43.1099 10.6625 44.2471 11.4787 45.0089C12.2442 45.7626 13.3582 46.1182 16.0825 46.1182V46.0936ZM43.7595 49.9134C43.1025 49.9134 42.6483 49.7612 42.3963 49.4567C42.1435 49.1521 41.9414 48.5454 41.7393 47.7328L35.2205 25.7339C35.0179 24.9213 34.9169 24.4139 34.9169 24.1604C34.9169 23.5536 35.1696 23.2491 35.6745 23.2491H38.3575C39.0652 23.2491 39.5701 23.4013 39.8229 23.7058C40.0756 24.0104 40.2777 24.6171 40.4798 25.4297L45.3313 45.0089L49.8775 25.4297C50.0289 24.6171 50.231 24.0104 50.4837 23.7058C50.7365 23.4013 51.2921 23.2491 51.9491 23.2491H54.2265C54.9342 23.2491 55.4391 23.4013 55.6918 23.7058C55.9446 24.0104 56.1974 24.6171 56.2988 25.4297L60.9464 45.3136L65.9495 25.4297C66.1516 24.6171 66.3537 24.0104 66.6064 23.7058C66.8592 23.4013 67.3641 23.2491 68.0718 23.2491H70.6027C71.1076 23.2491 71.3604 23.5536 71.3604 24.1604C71.3604 24.3632 71.3097 24.5661 71.259 24.8195C71.2083 25.073 71.1076 25.4297 70.9558 25.8867L64.2256 47.8847C64.0235 48.6973 63.8214 49.304 63.5686 49.6086C63.3159 49.9132 62.8617 50.0654 62.2047 50.0654H59.7723C59.0646 50.0654 58.5597 49.9132 58.307 49.6086C58.0542 49.304 57.8521 48.6973 57.7003 47.8847L53.1541 28.7393L48.6586 47.8339C48.5068 48.6465 48.3047 49.2532 48.052 49.5578C47.7992 49.8624 47.2436 50.0146 46.5866 50.0146H44.1542L43.7595 49.9134ZM80.2235 51.0754C79.1094 51.0754 77.9446 50.9739 76.8306 50.7204C75.7165 50.4669 74.8042 50.1621 74.1472 49.8573C73.6423 49.6545 73.2889 49.4009 73.1371 49.1982C72.9853 48.9947 72.8842 48.7412 72.8842 48.4873V46.8956C72.8842 46.083 73.1877 45.6767 73.7433 45.6767C73.9961 45.6767 74.2488 45.7273 74.5016 45.8286C74.7544 45.9299 75.1585 46.0821 75.6126 46.2849C76.4742 46.6403 77.3865 46.9449 78.3484 47.1477C79.361 47.3506 80.3229 47.4519 81.3355 47.4519C83.2058 47.4519 84.6719 47.0963 85.7352 46.3845C86.7985 45.6728 87.3541 44.6871 87.3541 43.4335C87.3541 42.5788 87.0514 41.8758 86.4958 41.2691C85.9402 40.6623 84.9276 40.1549 83.5142 39.6982L80.0214 38.6619C77.8961 37.9589 76.3794 36.9225 75.4677 35.5575C74.556 34.1924 74.1019 32.7767 74.1019 31.3609C74.1019 30.1073 74.3546 29.0052 74.9102 28.0195C75.4658 27.0339 76.1735 26.2213 77.0345 25.5184C77.8961 24.8154 78.909 24.2593 80.0214 23.9039C81.1355 23.5484 82.3382 23.3456 83.5916 23.3456C84.2486 23.3456 84.9563 23.3963 85.6133 23.4976C86.321 23.5989 86.9273 23.7511 87.5336 23.9039C88.0892 24.0561 88.5941 24.2084 89.0483 24.3606C89.5024 24.5128 89.8558 24.6649 90.0579 24.8171C90.4113 25.0199 90.6641 25.2227 90.8159 25.4762C90.9677 25.679 91.0181 25.9832 91.0181 26.3893V27.8808C91.0181 28.6934 90.7146 29.0997 90.159 29.0997C89.8558 29.0997 89.3509 28.9475 88.7446 28.6934C87.2785 28.0867 85.6641 27.7819 83.8951 27.7819C82.1719 27.7819 80.8072 28.0867 79.8452 28.7389C78.8833 29.3456 78.4291 30.2511 78.4291 31.5047C78.4291 32.3593 78.7318 33.1212 79.3381 33.7279C79.9444 34.3347 81.0584 34.8928 82.6809 35.3495L86.0731 36.3858C88.1478 37.0888 89.6139 38.0237 90.4755 39.2267C91.3365 40.4295 91.7913 41.7846 91.7913 43.2511C91.7913 44.5554 91.5385 45.7082 91.0336 46.7446C90.5287 47.7809 89.771 48.6658 88.91 49.3687C88.0484 50.0717 86.9851 50.6277 85.7824 50.9832C84.4684 51.2367 83.3543 51.3887 82.1516 51.3887L80.2235 51.0754Z" fill="#252F3E"/>
    <path d="M92.2962 61.2173C85.8363 65.8932 76.7698 68.3839 68.6781 68.3839C57.3496 68.3839 47.1929 64.5775 39.5194 57.9669C38.9131 57.4595 39.4687 56.7058 40.1764 57.1121C48.4563 62.0299 58.4637 64.9837 68.8295 64.9837C75.8176 64.9837 83.4586 63.4667 90.4905 60.3039C91.5032 59.8473 92.3648 60.7528 92.2962 61.2173Z" fill="#FF9900"/>
    <path d="M94.7286 58.3732C93.9177 57.3368 87.7582 58.1494 84.9738 58.5557C84.2661 58.657 84.1649 58.0503 84.8219 57.5936C89.5202 54.3962 97.2624 55.4325 97.9701 56.2958C98.6778 57.1591 97.7661 64.3901 93.3621 68.0285C92.7558 68.5359 92.2002 68.2821 92.4529 67.6246C93.5163 64.8095 95.5403 59.4095 94.7286 58.3732Z" fill="#FF9900"/>
</svg> 