<?xml version="1.0" encoding="UTF-8"?>
<svg width="100" height="100" viewBox="0 0 100 100" fill="none" xmlns="http://www.w3.org/2000/svg">
    <path fill-rule="evenodd" clip-rule="evenodd" d="M50 75V62.5C37.5 62.5 27.5 50 30 35C31.25 28.75 35 23.75 40 21.25C47.5 17.5 55 17.5 62.5 20C70 23.75 75 31.25 75 40C75 52.5 65 62.5 52.5 62.5H45V55H52.5C60 55 67.5 47.5 67.5 40C67.5 27.5 52.5 21.25 42.5 28.75C38.75 31.25 36.25 35 36.25 40C36.25 47.5 42.5 55 50 55V62.5H42.5V70H50V75H42.5V82.5H50V75Z" fill="#0080FF"/>
</svg> 