<?xml version="1.0" encoding="UTF-8"?>
<svg width="100" height="100" viewBox="0 0 100 100" fill="none" xmlns="http://www.w3.org/2000/svg">
    <path d="M66.7891 43.1641L70.3125 39.6406L70.7031 38.4766C63.2812 31.4453 51.7578 30.2813 43.1641 36.1719L44.7188 39.6406L46.2734 39.2500C53.3047 34.6172 62.6953 35.7813 68.7344 41.8203L66.7891 43.1641Z" fill="#EA4335"/>
    <path d="M70.7031 38.4766L70.3125 39.6406L66.7891 43.1641L68.7344 41.8203C71.0938 44.1797 72.6484 47.2578 73.4297 50.7266C74.2109 54.1953 73.8203 57.8594 72.6484 61.1328C71.4766 64.4063 69.3359 67.2891 66.3984 69.2344C63.4609 71.1797 60.1328 72.1562 56.6641 72.1562H32.2266L39.2578 65.1250H56.6641C61.6875 65.1250 66.0078 61.9688 67.3516 57.2734C68.6953 52.5781 66.7891 47.4531 62.8906 44.7656L61.3359 46.3203L57.8125 45.1484L70.7031 38.4766Z" fill="#4285F4"/>
    <path d="M56.6641 72.1562H32.2266L39.2578 65.1250H56.6641C61.6875 65.1250 66.0078 61.9688 67.3516 57.2734L62.8906 44.7656C66.7891 47.4531 68.6953 52.5781 67.3516 57.2734C66.0078 61.9688 61.6875 72.1562 56.6641 72.1562Z" fill="#34A853"/>
    <path d="M32.2266 72.1562C29.1484 72.1562 26.2656 71.1797 23.7734 69.4297C21.2812 67.6797 19.3359 65.1250 18.3594 62.1875C17.3828 59.25 17.3828 56.1172 18.1641 53.1797C18.9453 50.2422 20.6953 47.6484 23.1875 45.7031L29.8125 51.9375L30.0078 52.7188C29.6172 54.0625 29.8125 55.5625 30.4531 56.7344C31.0938 57.9062 32.2266 58.8828 33.5703 59.2734C34.9141 59.6641 36.4141 59.4688 37.5859 58.8281C38.7578 58.1875 39.7344 57.0547 40.125 55.7109L46.2734 39.25L44.7188 39.6406L43.1641 36.1719C40.7109 37.3672 38.5963 39.1016 36.9219 41.25C35.2474 43.3984 34.0547 45.9062 33.4219 48.5781C32.7891 51.25 32.7344 54.0234 33.2578 56.7188C33.7813 59.4141 34.8672 61.9453 36.4453 64.1562L32.2266 72.1562Z" fill="#FBBC05"/>
    <path d="M23.1875 45.7031C26.3203 42.9609 30.4531 41.4062 34.7188 41.4062C39.3047 41.4062 43.6797 43.3125 46.6172 46.7812L40.125 55.7109C39.7344 57.0547 38.7578 58.1875 37.5859 58.8281C36.4141 59.4688 34.9141 59.6641 33.5703 59.2734C32.2266 58.8828 31.0938 57.9062 30.4531 56.7344C29.8125 55.5625 29.6172 54.0625 30.0078 52.7188L29.8125 51.9375L23.1875 45.7031Z" fill="#EA4335"/>
</svg> 